# This file uses centimeters as units for non-parametric coordinates.

mtllib Plat1.mtl
g default
v -7.106697 -0.632221 6.783293
v -2.893303 -0.632221 6.783293
v -6.874506 0.632221 6.586741
v -3.125494 0.632221 6.586741
v -6.874506 0.632221 3.413247
v -3.125494 0.632221 3.413247
v -7.106697 -0.632221 3.216707
v -2.893303 -0.632221 3.216707
v -7.106697 -0.632221 3.216707
v -2.893303 -0.632221 3.216707
v -2.893303 -0.632221 6.783293
v -7.106697 -0.632221 6.783293
v -5.000000 -3.887737 5.000000
v -6.688755 0.632221 6.429505
v -3.311245 0.632221 6.429505
v -3.311245 0.632221 3.570483
v -6.688755 0.632221 3.570483
v -6.688755 0.573635 6.429505
v -3.311245 0.573635 6.429505
v -3.311245 0.573635 3.570483
v -6.688755 0.573635 3.570483
v -6.688755 0.573635 6.429507
v -3.311245 0.573635 6.429507
v -3.311245 0.573635 3.570485
v -6.688755 0.573635 3.570485
v -6.688755 0.202614 6.429507
v -3.311245 0.202614 6.429507
v -3.311245 0.202614 3.570485
v -6.688755 0.202614 3.570485
vt 0.742837 0.703155
vt 0.781607 0.703155
vt 0.742837 0.741925
vt 0.781607 0.741925
vt 0.742837 0.703155
vt 0.781607 0.703155
vt 0.781607 0.741925
vt 0.742837 0.741925
vt 0.788118 0.703155
vt 0.826889 0.703155
vt 0.826889 0.741925
vt 0.788118 0.741925
vt 0.788118 0.703155
vt 0.826889 0.703155
vt 0.826889 0.741925
vt 0.788118 0.741925
vt 0.535130 0.683551
vt 0.535130 0.372804
vt 0.645298 0.389928
vt 0.645298 0.666426
vt 0.419261 0.683551
vt 0.419261 0.372804
vt 0.529428 0.389929
vt 0.529428 0.666427
vt 0.650133 0.703155
vt 0.650133 0.952254
vt 0.645029 0.952254
vt 0.645029 0.703155
vt 0.661001 0.703155
vt 0.661001 0.952254
vt 0.655896 0.952254
vt 0.655896 0.703155
vt 0.699090 0.703155
vt 0.699090 0.952254
vt 0.666764 0.952254
vt 0.666764 0.703155
vt 0.737127 0.703155
vt 0.737127 0.952254
vt 0.704800 0.952254
vt 0.704800 0.703155
vt 0.291834 0.981534
vt 0.291834 0.687261
vt 0.540933 0.687261
vt 0.540933 0.981534
vt 0.651000 0.699445
vt 0.651000 0.372804
vt 0.664699 0.388988
vt 0.664699 0.683261
vt 0.927498 0.372804
vt 0.913799 0.388988
vt 0.927498 0.699445
vt 0.913799 0.683261
vt 0.001851 0.369094
vt 0.001851 0.001992
vt 0.112019 0.022222
vt 0.112019 0.348864
vt 0.117953 0.348864
vt 0.117953 0.022222
vt 0.228121 0.001992
vt 0.228121 0.369094
vt 0.233873 0.369094
vt 0.233873 0.001992
vt 0.517518 0.185543
vt 0.807319 0.001992
vt 0.807319 0.369094
vt 0.523675 0.185543
vt 0.547221 0.981534
vt 0.547221 0.687261
vt 0.552325 0.687261
vt 0.552325 0.981534
vt 0.563193 0.687261
vt 0.563193 0.981534
vt 0.558088 0.981534
vt 0.558088 0.687261
vt 0.568956 0.981534
vt 0.568956 0.687261
vt 0.601282 0.687261
vt 0.601282 0.981534
vt 0.639319 0.687261
vt 0.639319 0.981534
vt 0.606992 0.981534
vt 0.606992 0.687261
vt 0.413559 0.372804
vt 0.413559 0.683551
vt 0.129914 0.528177
vt 0.285496 0.687261
vt 0.285496 0.998008
vt 0.001851 0.842634
vn 0.000000 0.153600 0.988133
vn 0.000000 0.153600 0.988133
vn 0.000000 0.153600 0.988133
vn 0.000000 0.153600 0.988133
vn 0.000000 1.000000 0.000000
vn 0.000000 1.000000 0.000000
vn 0.000000 1.000000 0.000000
vn 0.000000 1.000000 0.000000
vn 0.000000 0.153591 -0.988135
vn 0.000000 0.153591 -0.988135
vn 0.000000 0.153591 -0.988135
vn 0.000000 0.153591 -0.988135
vn 0.983555 0.180611 0.000000
vn 0.983555 0.180611 0.000000
vn 0.983555 0.180611 0.000000
vn 0.983555 0.180611 0.000000
vn -0.983555 0.180611 0.000000
vn -0.983555 0.180611 0.000000
vn -0.983555 0.180611 0.000000
vn -0.983555 0.180611 0.000000
vn 0.000000 0.000000 0.000000
vn 0.000000 0.000000 0.000000
vn 0.000000 0.000000 0.000000
vn 0.000000 0.000000 0.000000
vn 0.000000 0.000000 0.000000
vn 0.000000 0.000000 0.000000
vn 0.000000 0.000000 0.000000
vn 0.000000 0.000000 0.000000
vn 0.000000 0.000000 0.000000
vn 0.000000 0.000000 0.000000
vn 0.000000 0.000000 0.000000
vn 0.000000 0.000000 0.000000
vn 0.000000 0.000000 0.000000
vn 0.000000 0.000000 0.000000
vn 0.000000 0.000000 0.000000
vn 0.000000 0.000000 0.000000
vn 0.000000 -0.480420 -0.877038
vn 0.000000 -0.480420 -0.877038
vn 0.000000 -0.480420 -0.877038
vn 0.839548 -0.543285 0.000000
vn 0.839548 -0.543285 0.000000
vn 0.839548 -0.543285 0.000000
vn 0.000000 -0.480420 0.877038
vn 0.000000 -0.480420 0.877038
vn 0.000000 -0.480420 0.877038
vn -0.839548 -0.543285 0.000000
vn -0.839548 -0.543285 0.000000
vn -0.839548 -0.543285 0.000000
vn 0.000000 1.000000 0.000000
vn 0.000000 1.000000 0.000000
vn 0.000000 1.000000 0.000000
vn 0.000000 1.000000 0.000000
vn 0.000000 1.000000 0.000000
vn 0.000000 1.000000 0.000000
vn 0.000000 1.000000 0.000000
vn 0.000000 1.000000 0.000000
vn 0.000000 1.000000 -0.000000
vn 0.000000 1.000000 -0.000000
vn 0.000000 1.000000 -0.000000
vn 0.000000 1.000000 -0.000000
vn 0.000000 1.000000 0.000000
vn 0.000000 1.000000 0.000000
vn 0.000000 1.000000 0.000000
vn 0.000000 1.000000 0.000000
vn 0.000000 0.000000 -1.000000
vn 0.000000 0.000000 -1.000000
vn 0.000000 0.000000 -1.000000
vn 0.000000 0.000000 -1.000000
vn -1.000000 0.000000 0.000000
vn -1.000000 0.000000 0.000000
vn -1.000000 0.000000 0.000000
vn -1.000000 0.000000 0.000000
vn 0.000000 0.000000 1.000000
vn 0.000000 0.000000 1.000000
vn 0.000000 0.000000 1.000000
vn 0.000000 0.000000 1.000000
vn 1.000000 0.000000 0.000000
vn 1.000000 0.000000 0.000000
vn 1.000000 0.000000 0.000000
vn 1.000000 0.000000 0.000000
vn 0.000000 -1.000000 0.000000
vn 0.000000 -1.000000 0.000000
vn 0.000000 -1.000000 0.000000
vn 0.000000 -1.000000 0.000000
vn 0.000000 -0.000000 0.000000
vn 0.000000 -0.000000 0.000000
vn 0.000000 -0.000000 0.000000
vn 0.000000 -0.000000 0.000000
vn 0.000000 1.000000 0.000000
vn 0.000000 1.000000 0.000000
vn 0.000000 1.000000 0.000000
vn 0.000000 1.000000 0.000000
vn 0.000000 0.000000 0.000000
vn 0.000000 0.000000 0.000000
vn 0.000000 0.000000 0.000000
vn 0.000000 0.000000 0.000000
vn 0.000000 0.000000 -1.000000
vn 0.000000 0.000000 -1.000000
vn 0.000000 0.000000 -1.000000
vn 0.000000 0.000000 -1.000000
vn -1.000000 0.000000 0.000000
vn -1.000000 0.000000 0.000000
vn -1.000000 0.000000 0.000000
vn -1.000000 0.000000 0.000000
vn 0.000000 0.000000 1.000000
vn 0.000000 0.000000 1.000000
vn 0.000000 0.000000 1.000000
vn 0.000000 0.000000 1.000000
vn 1.000000 0.000000 0.000000
vn 1.000000 0.000000 0.000000
vn 1.000000 0.000000 0.000000
vn 1.000000 0.000000 0.000000
s off
g pCube63
usemtl blinn6SG
f 1/53/1 2/54/2 4/55/3 3/56/4
f 26/41/5 27/42/6 28/43/7 29/44/8
f 5/57/9 6/58/10 8/59/11 7/60/12
f 2/17/13 8/18/14 6/19/15 4/20/16
f 7/21/17 1/22/18 3/23/19 5/24/20
f 7/1/21 8/2/22 10/6/23 9/5/24
f 8/2/25 2/4/26 11/7/27 10/6/28
f 2/4/29 1/3/30 12/8/31 11/7/32
f 1/3/33 7/1/34 9/5/35 12/8/36
f 9/61/37 10/62/38 13/63/39
f 10/83/40 11/84/41 13/85/42
f 11/64/43 12/65/44 13/66/45
f 12/86/46 9/87/47 13/88/48
f 3/45/49 4/46/50 15/47/51 14/48/52
f 4/46/53 6/49/54 16/50/55 15/47/56
f 6/49/57 5/51/58 17/52/59 16/50/60
f 5/51/61 3/45/62 14/48/63 17/52/64
f 14/67/65 15/68/66 19/69/67 18/70/68
f 15/25/69 16/26/70 20/27/71 19/28/72
f 16/71/73 17/72/74 21/73/75 20/74/76
f 17/29/77 14/30/78 18/31/79 21/32/80
f 18/9/81 19/10/82 23/14/83 22/13/84
f 19/10/85 20/11/86 24/15/87 23/14/88
f 20/11/89 21/12/90 25/16/91 24/15/92
f 21/12/93 18/9/94 22/13/95 25/16/96
f 22/75/97 23/76/98 27/77/99 26/78/100
f 23/33/101 24/34/102 28/35/103 27/36/104
f 24/79/105 25/80/106 29/81/107 28/82/108
f 25/37/109 22/38/110 26/39/111 29/40/112
